<svg width="49" height="35" viewBox="0 0 49 35" fill="none" xmlns="http://www.w3.org/2000/svg">
<path fill-rule="evenodd" clip-rule="evenodd" d="M37.625 13.1178C38.8309 13.1178 39.8086 12.1392 39.8086 10.932C39.8086 9.72474 38.8309 8.74609 37.625 8.74609C36.4191 8.74609 35.4414 9.72474 35.4414 10.932C35.4414 12.1392 36.4191 13.1178 37.625 13.1178Z" fill="#9C9C9C"/>
<path fill-rule="evenodd" clip-rule="evenodd" d="M13.1171 3.28012C13.3858 3.28012 13.602 3.08552 13.602 2.84289V1.53098C13.602 1.29048 13.3858 1.09375 13.1171 1.09375H9.71913C9.45057 1.09375 9.23438 1.28836 9.23438 1.53098V2.84289C9.23438 3.0834 9.45057 3.28012 9.71913 3.28012H13.1171Z" fill="#9C9C9C"/>
<path fill-rule="evenodd" clip-rule="evenodd" d="M25.6143 28.4243C31.041 28.4243 35.4413 24.0186 35.4413 18.5853C35.4413 13.1519 31.041 8.74609 25.6143 8.74609C20.1875 8.74609 15.7871 13.1519 15.7871 18.5853C15.7871 24.0186 20.1875 28.4243 25.6143 28.4243ZM25.614 10.9326C29.8354 10.9326 33.2575 14.3588 33.2575 18.5852C33.2575 22.8116 29.8354 26.2378 25.614 26.2378C21.3929 26.2378 17.9709 22.8116 17.9709 18.5852C17.9709 14.3588 21.3929 10.9326 25.614 10.9326Z" fill="#9C9C9C"/>
<path fill-rule="evenodd" clip-rule="evenodd" d="M0.5 8.74577V30.6104C0.5 34.9835 4.86758 34.9835 4.86758 34.9835H44.1758C44.1758 34.9835 48.5435 34.9835 48.5435 30.6104V8.74577C48.5435 4.37291 44.1758 4.37291 44.1758 4.37291H35.8773L33.5582 0.505082C33.3922 0.225187 32.9906 0 32.6759 0H18.5512C18.2303 0 17.8306 0.233984 17.6689 0.505082L15.3497 4.37291H4.86758C4.86758 4.3728 0.5 4.3728 0.5 8.74577ZM16.8217 6.55932L19.2544 2.18635H31.7631L34.5299 6.55932H44.1518C44.1518 6.55932 46.3597 6.55932 46.3597 8.78514V30.5688C46.3597 32.7969 44.1518 32.7969 44.1518 32.7969H4.89158C4.89158 32.7969 2.68379 32.7969 2.68379 30.5688V8.78514C2.68379 6.55932 4.89158 6.55932 4.89158 6.55932H16.8217Z" fill="#9C9C9C"/>
</svg>
