<svg width="38" height="38" viewBox="0 0 38 38" fill="none" xmlns="http://www.w3.org/2000/svg">
<circle cx="19" cy="19" r="19" fill="#FF6C6C"/>
<rect width="18" height="18" transform="translate(10 10)" fill="#FF6C6C"/>
<g clip-path="url(#clip0_227_11627)">
<path d="M27.7801 10.2196C27.6394 10.079 27.4487 10 27.2498 10C27.051 10 26.8602 10.079 26.7196 10.2196L18.9998 17.9393L11.2801 10.2196C11.1394 10.079 10.9487 10 10.7498 10C10.551 10 10.3602 10.079 10.2196 10.2196C10.079 10.3602 10 10.551 10 10.7498C10 10.9487 10.079 11.1394 10.2196 11.2801L17.9393 18.9998L10.2196 26.7196C10.079 26.8602 10 27.051 10 27.2498C10 27.4487 10.079 27.6394 10.2196 27.7801C10.3602 27.9207 10.551 27.9997 10.7498 27.9997C10.9487 27.9997 11.1394 27.9207 11.2801 27.7801L18.9998 20.0603L26.7196 27.7801C26.8602 27.9207 27.051 27.9997 27.2498 27.9997C27.4487 27.9997 27.6394 27.9207 27.7801 27.7801C27.9207 27.6394 27.9997 27.4487 27.9997 27.2498C27.9997 27.051 27.9207 26.8602 27.7801 26.7196L20.0603 18.9998L27.7801 11.2801C27.9207 11.1394 27.9997 10.9487 27.9997 10.7498C27.9997 10.551 27.9207 10.3602 27.7801 10.2196Z" fill="white"/>
</g>
<defs>
<clipPath id="clip0_227_11627">
<rect width="18" height="18" fill="white" transform="translate(10 10)"/>
</clipPath>
</defs>
</svg>
