<svg width="18" height="19" viewBox="0 0 18 19" fill="none" xmlns="http://www.w3.org/2000/svg">
<g clip-path="url(#clip0_942_2887)">
<path d="M8.607 11.75C8.40809 11.75 8.21732 11.829 8.07667 11.9697C7.93602 12.1103 7.857 12.3011 7.857 12.5V14.75C7.857 15.3467 7.61995 15.919 7.19799 16.341C6.77603 16.7629 6.20374 17 5.607 17H3.75C3.15326 17 2.58097 16.7629 2.15901 16.341C1.73705 15.919 1.5 15.3467 1.5 14.75V4.25C1.5 3.65326 1.73705 3.08097 2.15901 2.65901C2.58097 2.23705 3.15326 2 3.75 2H5.607C6.20374 2 6.77603 2.23705 7.19799 2.65901C7.61995 3.08097 7.857 3.65326 7.857 4.25V6.5C7.857 6.69891 7.93602 6.88968 8.07667 7.03033C8.21732 7.17098 8.40809 7.25 8.607 7.25C8.80591 7.25 8.99668 7.17098 9.13733 7.03033C9.27798 6.88968 9.357 6.69891 9.357 6.5V4.25C9.35581 3.2558 8.96034 2.30267 8.25734 1.59966C7.55433 0.896661 6.6012 0.501191 5.607 0.5H3.75C2.7558 0.501191 1.80267 0.896661 1.09967 1.59966C0.396662 2.30267 0.00119089 3.2558 0 4.25L0 14.75C0.00119089 15.7442 0.396662 16.6973 1.09967 17.4003C1.80267 18.1033 2.7558 18.4988 3.75 18.5H5.607C6.6012 18.4988 7.55433 18.1033 8.25734 17.4003C8.96034 16.6973 9.35581 15.7442 9.357 14.75V12.5C9.357 12.3011 9.27798 12.1103 9.13733 11.9697C8.99668 11.829 8.80591 11.75 8.607 11.75Z" fill="#0C9DA2"/>
<path d="M17.1503 7.91065L13.7108 4.47115C13.6416 4.39952 13.5588 4.34238 13.4673 4.30308C13.3758 4.26377 13.2774 4.24308 13.1778 4.24222C13.0782 4.24135 12.9795 4.26033 12.8873 4.29804C12.7951 4.33575 12.7114 4.39144 12.641 4.46186C12.5705 4.53228 12.5148 4.61602 12.4771 4.70819C12.4394 4.80036 12.4204 4.89912 12.4213 4.9987C12.4222 5.09829 12.4429 5.1967 12.4822 5.28821C12.5215 5.37971 12.5786 5.46247 12.6503 5.53165L15.8468 8.7289L4.5 8.7514C4.30109 8.7514 4.11032 8.83042 3.96967 8.97107C3.82902 9.11173 3.75 9.30249 3.75 9.5014C3.75 9.70032 3.82902 9.89108 3.96967 10.0317C4.11032 10.1724 4.30109 10.2514 4.5 10.2514L15.891 10.2282L12.6488 13.4712C12.5771 13.5403 12.52 13.6231 12.4807 13.7146C12.4414 13.8061 12.4207 13.9045 12.4198 14.0041C12.4189 14.1037 12.4379 14.2024 12.4756 14.2946C12.5133 14.3868 12.569 14.4705 12.6395 14.5409C12.7099 14.6114 12.7936 14.6671 12.8858 14.7048C12.978 14.7425 13.0767 14.7615 13.1763 14.7606C13.2759 14.7597 13.3743 14.739 13.4658 14.6997C13.5573 14.6604 13.6401 14.6033 13.7092 14.5317L17.1488 11.0922C17.5708 10.6704 17.808 10.0983 17.8083 9.50171C17.8086 8.90509 17.5719 8.33279 17.1503 7.91065Z" fill="#0C9DA2"/>
</g>
<defs>
<clipPath id="clip0_942_2887">
<rect width="18" height="18" fill="white" transform="translate(0 0.5)"/>
</clipPath>
</defs>
</svg>
