<svg width="38" height="38" viewBox="0 0 38 38" fill="none" xmlns="http://www.w3.org/2000/svg">
<circle cx="19" cy="19" r="19" fill="#C0E58B"/>
<rect width="18" height="18" transform="translate(10 10)" fill="#C0E58B"/>
<g clip-path="url(#clip0_227_11612)">
<path d="M26.74 13.3223L16.3757 23.6858C16.306 23.7557 16.2232 23.8112 16.132 23.8491C16.0408 23.887 15.9431 23.9065 15.8443 23.9065C15.7456 23.9065 15.6478 23.887 15.5566 23.8491C15.4654 23.8112 15.3826 23.7557 15.313 23.6858L11.305 19.674C11.2353 19.6041 11.1525 19.5486 11.0613 19.5107C10.9701 19.4728 10.8723 19.4533 10.7736 19.4533C10.6748 19.4533 10.5771 19.4728 10.4859 19.5107C10.3947 19.5486 10.3119 19.6041 10.2422 19.674C10.1722 19.7437 10.1167 19.8265 10.0789 19.9177C10.041 20.0089 10.0215 20.1067 10.0215 20.2054C10.0215 20.3041 10.041 20.4019 10.0789 20.4931C10.1167 20.5843 10.1722 20.6671 10.2422 20.7368L14.2517 24.7455C14.6747 25.1677 15.2478 25.4048 15.8455 25.4048C16.4431 25.4048 17.0162 25.1677 17.4392 24.7455L27.8027 14.3843C27.8725 14.3146 27.928 14.2318 27.9658 14.1407C28.0036 14.0496 28.023 13.9519 28.023 13.8533C28.023 13.7546 28.0036 13.6569 27.9658 13.5658C27.928 13.4747 27.8725 13.3919 27.8027 13.3223C27.733 13.2523 27.6502 13.1968 27.559 13.1589C27.4678 13.1211 27.3701 13.1016 27.2713 13.1016C27.1726 13.1016 27.0748 13.1211 26.9836 13.1589C26.8924 13.1968 26.8096 13.2523 26.74 13.3223Z" fill="white"/>
</g>
<defs>
<clipPath id="clip0_227_11612">
<rect width="18" height="18" fill="white" transform="translate(10 10)"/>
</clipPath>
</defs>
</svg>
